<svg width="20" height="20" fill="none" xmlns="http://www.w3.org/2000/svg"><path d="M.91 13.167h18.18V15H.91v-1.833Zm1.045-3.713.772-1.357.773 1.357 1.182-.687-.773-1.357h1.546V6.035H3.909l.773-1.348L3.5 4l-.773 1.348L1.955 4l-1.182.688.772 1.347H0V7.41h1.545L.773 8.767l1.182.687Zm6.09-.687 1.182.687L10 8.097l.773 1.357 1.181-.687-.772-1.357h1.545V6.035h-1.545l.772-1.348L10.773 4 10 5.348 9.227 4l-1.182.688.773 1.347H7.273V7.41h1.545l-.773 1.357ZM20 6.035h-1.546l.773-1.348L18.046 4l-.773 1.348L16.5 4l-1.182.688.773 1.347h-1.546V7.41h1.546l-.773 1.357 1.182.687.773-1.357.773 1.357 1.181-.687-.773-1.357H20V6.035Z" fill="#444"/></svg>