<svg width="20" height="20" fill="none" xmlns="http://www.w3.org/2000/svg"><path d="M10 13.75c-.926 0-1.713-.316-2.361-.948a3.095 3.095 0 0 1-.972-2.302c0-.903.324-1.67.972-2.302.648-.632 1.435-.948 2.361-.948.926 0 1.713.316 2.361.948.648.632.972 1.4.972 2.302 0 .903-.324 1.67-.972 2.302-.648.632-1.435.948-2.361.948ZM2.222 17a2.168 2.168 0 0 1-1.57-.637A2.06 2.06 0 0 1 0 14.833V6.167c0-.596.218-1.106.653-1.53A2.168 2.168 0 0 1 2.223 4h15.555c.61 0 1.134.212 1.57.636.434.425.652.935.652 1.53v8.667a2.06 2.06 0 0 1-.653 1.53 2.168 2.168 0 0 1-1.57.637H2.223Zm2.222-2.167h11.112c0-.595.217-1.106.652-1.53a2.168 2.168 0 0 1 1.57-.636V8.333a2.168 2.168 0 0 1-1.57-.636 2.06 2.06 0 0 1-.652-1.53H4.444a2.06 2.06 0 0 1-.652 1.53 2.168 2.168 0 0 1-1.57.636v4.334c.611 0 1.134.212 1.57.636.435.424.652.934.652 1.53Z" fill="#161C26"/></svg>