<svg xmlns="http://www.w3.org/2000/svg" viewBox="0 0 20 20"><path class="border" d="M0 2a2 2 0 0 1 2-2h16a2 2 0 0 1 2 2v16a2 2 0 0 1-2 2H2a2 2 0 0 1-2-2V2Z" fill="#444"/><path class="background" fill-rule="evenodd" clip-rule="evenodd" d="M18 1H2a1 1 0 0 0-1 1v16a1 1 0 0 0 1 1h16a1 1 0 0 0 1-1V2a1 1 0 0 0-1-1ZM2 0a2 2 0 0 0-2 2v16a2 2 0 0 0 2 2h16a2 2 0 0 0 2-2V2a2 2 0 0 0-2-2H2Z" fill="#444"/><path class="check" d="m7.085 13.699-3.793-3.98L2 11.063 7.085 16.4 18 4.946 16.718 3.6 7.085 13.699Z" fill="#fff"/></svg>