<svg viewBox="0 0 20 20" xmlns="http://www.w3.org/2000/svg"><g clip-path="url(#table-view__a)"><path d="M17.778 17.778v-3.334H2.222v3.334h15.556Zm0-5.556V7.778H2.222v4.444h15.556Zm0-6.666V2.222H2.222v3.334h15.556ZM2.222 20a2.14 2.14 0 0 1-1.57-.653A2.14 2.14 0 0 1 0 17.777V2.223c0-.61.218-1.134.653-1.57A2.14 2.14 0 0 1 2.223 0h15.555a2.14 2.14 0 0 1 1.57.653c.434.435.652.958.652 1.57v15.555a2.14 2.14 0 0 1-.653 1.57 2.14 2.14 0 0 1-1.57.652H2.223Z" fill="#161C26"/></g><defs><clipPath id="table-view__a"><path fill="#fff" d="M0 0h20v20H0z"/></clipPath></defs></svg>