<svg viewBox="0 0 20 20" xmlns="http://www.w3.org/2000/svg"><path fill-rule="evenodd" clip-rule="evenodd" d="M8.71 1.538h7.483a.259.259 0 0 1 .259.257v16.41a.255.255 0 0 1-.259.257H3.806a.259.259 0 0 1-.258-.257V6.667h3.355c.48 0 .939-.19 1.278-.526a1.79 1.79 0 0 0 .529-1.27V1.539Zm-1.549.576L4.127 5.127h2.776a.259.259 0 0 0 .258-.256V2.114ZM6.57.526C6.95.149 7.522 0 7.935 0h8.258c.48 0 .94.19 1.278.526.339.336.529.793.529 1.269v16.41c0 .476-.19.933-.53 1.27a1.813 1.813 0 0 1-1.276.525H3.806c-.479 0-.938-.19-1.277-.526A1.789 1.789 0 0 1 2 18.205V5.897c0-.41.15-.98.53-1.357m0 0L6.57.526 2.53 4.54Zm7.728-.694c0-.425.347-.77.774-.77h3.097c.428 0 .774.345.774.77 0 .425-.346.77-.774.77h-3.097a.772.772 0 0 1-.774-.77Zm0 3.077c0-.425.347-.77.774-.77h3.097c.428 0 .774.345.774.77 0 .425-.346.77-.774.77h-3.097a.772.772 0 0 1-.774-.77Z" fill="#161C26"/><path d="M12.289 16.867 9.6 14.156a2.5 2.5 0 0 1-.933.177c-.741 0-1.37-.259-1.89-.777A2.572 2.572 0 0 1 6 11.666c0-.266.037-.52.111-.76.074-.241.178-.469.311-.684l1.622 1.622.8-.8-1.622-1.622c.215-.133.443-.237.684-.31.24-.075.494-.112.76-.112.741 0 1.371.26 1.89.778.518.518.777 1.148.777 1.889a2.493 2.493 0 0 1-.177.933l2.71 2.689a.439.439 0 0 1 .134.322.439.439 0 0 1-.133.322l-.934.934a.439.439 0 0 1-.322.133.439.439 0 0 1-.322-.133Z" fill="#161C26"/></svg>