<svg viewBox="0 0 20 20" xmlns="http://www.w3.org/2000/svg"><path d="M16.667 6.667h-2.5V3.333H2.5C1.583 3.333.833 4.083.833 5v9.167H2.5c0 1.383 1.117 2.5 2.5 2.5s2.5-1.117 2.5-2.5h5c0 1.383 1.117 2.5 2.5 2.5s2.5-1.117 2.5-2.5h1.667V10l-2.5-3.333Zm-.417 1.25L17.883 10h-3.716V7.917h2.083ZM5 15a.836.836 0 0 1-.833-.833c0-.459.375-.834.833-.834.458 0 .833.375.833.834A.836.836 0 0 1 5 15Zm1.85-2.5A2.475 2.475 0 0 0 5 11.667c-.742 0-1.392.325-1.85.833H2.5V5h10v7.5H6.85ZM15 15a.836.836 0 0 1-.833-.833c0-.459.375-.834.833-.834.458 0 .833.375.833.834A.836.836 0 0 1 15 15Z" fill="#161C26"/></svg>