<svg xmlns="http://www.w3.org/2000/svg" viewBox="0 0 69 68"><g clip-path="url(#empty-customize__a)"><path d="M68.5 30.468 53.503 11.646a3.858 3.858 0 0 0-1.293-1.06 3.6 3.6 0 0 0-1.586-.386H18.376c-1.106 0-2.158.545-2.879 1.446L.5 30.468V40.8h68V30.468Z" fill="url(#empty-customize__b)"/><path d="M65.1 39.549 51.599 24.89a3.439 3.439 0 0 0-1.18-.81 3.656 3.656 0 0 0-1.434-.28h-28.97c-.994 0-1.966.385-2.614 1.09L3.9 39.55v8.05h61.2v-8.051Z" fill="url(#empty-customize__c)"/><path d="M68.498 50.22c0 1.277-.601 2.424-1.55 3.193l-.194.15a4.458 4.458 0 0 1-2.616.837H4.862a4.48 4.48 0 0 1-1.521-.263l-.235-.09a4.342 4.342 0 0 1-1.897-1.545A4.055 4.055 0 0 1 .5 50.219V30.6h16.498c1.822 0 3.29 1.431 3.29 3.168v.022c0 1.738 1.486 3.14 3.308 3.14h21.806c.876 0 1.716-.333 2.336-.924.62-.59.97-1.392.972-2.228 0-1.744 1.47-3.178 3.29-3.178h16.5l-.002 19.62Z" fill="url(#empty-customize__d)"/></g><defs><linearGradient id="empty-customize__b" x1="34.5" y1="10.2" x2="34.5" y2="23.955" gradientUnits="userSpaceOnUse"><stop stop-color="#5F0F40"/><stop offset="1" stop-color="#90446D"/></linearGradient><linearGradient id="empty-customize__c" x1="42.667" y1="47.6" x2="42.667" y2="22.535" gradientUnits="userSpaceOnUse"><stop stop-color="#FCF0F6"/><stop offset="1" stop-color="#EDB8D1"/></linearGradient><linearGradient id="empty-customize__d" x1="34.5" y1="30.6" x2="34.5" y2="54.4" gradientUnits="userSpaceOnUse"><stop stop-color="#BF6C97"/><stop offset="1" stop-color="#EDB8D1"/></linearGradient><clipPath id="empty-customize__a"><path fill="#fff" transform="translate(.5)" d="M0 0h68v68H0z"/></clipPath></defs></svg>