<svg viewBox="0 0 20 20" fill="none" xmlns="http://www.w3.org/2000/svg">
<path d="M20 8.96109L15.589 3.42537C15.4847 3.2933 15.355 3.18694 15.2089 3.11353C15.0628 3.04012 14.9037 3.0014 14.7424 3H5.25763C4.93225 3 4.62301 3.16025 4.41101 3.42537L0 8.96109V12H20V8.96109Z" fill="url(#paint0_linear_1701_2134)"/>
<path d="M19 11.632L15.029 7.32069C14.933 7.21889 14.8147 7.13757 14.682 7.08224C14.5493 7.02691 14.4055 6.99887 14.2601 7.00003H5.73986C5.44738 7.00003 5.16154 7.11326 4.97098 7.32069L1 11.632V14H19V11.632Z" fill="url(#paint1_linear_1701_2134)"/>
<path d="M19.9995 14.7709C19.9995 15.1461 19.8226 15.4835 19.5433 15.7097L19.4866 15.7536C19.2652 15.9139 18.9948 16.0004 18.717 16H1.28304C1.12542 16 0.974722 15.9727 0.835542 15.9226L0.766412 15.8962C0.538345 15.7993 0.344576 15.6414 0.208555 15.4416C0.0725349 15.2418 9.40188e-05 15.0087 0 14.7704L0 9H4.85241C5.38839 9 5.82022 9.421 5.82022 9.93175V9.93835C5.82022 10.4495 6.25711 10.8617 6.7931 10.8617H13.2064C13.4641 10.8615 13.7111 10.7638 13.8935 10.5901C14.0758 10.4164 14.1786 10.1808 14.1793 9.93483C14.1793 9.42188 14.6116 9 15.1471 9H20L19.9995 14.7709Z" fill="url(#paint2_linear_1701_2134)"/>
<defs>
<linearGradient id="paint0_linear_1701_2134" x1="10" y1="3" x2="10" y2="7.0455" gradientUnits="userSpaceOnUse">
<stop stop-color="#CC003C"/>
<stop offset="1" stop-color="#EB004D"/>
</linearGradient>
<linearGradient id="paint1_linear_1701_2134" x1="12.4021" y1="14" x2="12.4021" y2="6.62788" gradientUnits="userSpaceOnUse">
<stop stop-color="#FFEDEE"/>
<stop offset="1" stop-color="#FFC7CC"/>
</linearGradient>
<linearGradient id="paint2_linear_1701_2134" x1="10" y1="9" x2="10" y2="16" gradientUnits="userSpaceOnUse">
<stop stop-color="#FF5077"/>
<stop offset="1" stop-color="#FFA1AD"/>
</linearGradient>
</defs>
</svg>
