<svg viewBox="0 0 20 20" xmlns="http://www.w3.org/2000/svg"><path d="m20 8.961-4.411-5.536a1.135 1.135 0 0 0-.38-.311A1.058 1.058 0 0 0 14.742 3H5.258c-.326 0-.635.16-.847.425L0 8.961V12h20V8.961Z" fill="#ACB1BB"/><path d="m19 11.632-3.971-4.311a1.011 1.011 0 0 0-.347-.239A1.075 1.075 0 0 0 14.26 7H5.74c-.293 0-.578.113-.769.32L1 11.633V14h18v-2.368Z" fill="#F3F3F5"/><path d="M20 14.77c0 .376-.177.713-.457.94l-.056.044a1.31 1.31 0 0 1-.77.246H1.283c-.158 0-.308-.027-.447-.077l-.07-.027a1.277 1.277 0 0 1-.557-.454A1.192 1.192 0 0 1 0 14.77V9h4.852c.536 0 .968.421.968.932v.006c0 .511.437.924.973.924h6.413a.998.998 0 0 0 .688-.272.909.909 0 0 0 .285-.655c0-.513.433-.935.968-.935H20v5.77Z" fill="#DADDE2"/></svg>