<svg xmlns="http://www.w3.org/2000/svg" viewBox="0 0 20 20"><g clip-path="url(#export__a)" fill="#444"><path d="M15.648 6.9H12.66v1.774h2.99c.888 0 1.577.454 1.577.844v7.864c0 .39-.69.844-1.578.844H4.352c-.89 0-1.579-.453-1.579-.844V9.519c0-.391.69-.845 1.579-.845H7.34V6.901H4.352C2.472 6.9 1 8.05 1 9.519v7.863C1 18.85 2.472 20 4.352 20h11.296C17.528 20 19 18.85 19 17.382V9.519C19 8.05 17.527 6.9 15.648 6.9Z"/><path d="M7.376 4.42a.883.883 0 0 0 .627-.26l1.11-1.11v9.021a.887.887 0 1 0 1.773 0V2.99l1.17 1.17a.884.884 0 0 0 1.254 0 .886.886 0 0 0 0-1.254L10.663.26a.883.883 0 0 0-.627-.26h-.013a.883.883 0 0 0-.627.26L6.75 2.905a.886.886 0 0 0 .627 1.514Z"/></g><defs><clipPath id="export__a"><path fill="#fff" d="M0 0h20v20H0z"/></clipPath></defs></svg>