<svg viewBox="0 0 20 20" xmlns="http://www.w3.org/2000/svg"><path d="M18.75 4.857v-2.57h-5.625v2.57h5.625Zm0 4.5V6.145h-5.625v3.214h5.625Zm0 4.5v-3.214h-5.625v3.214h5.625Zm0 3.858v-2.572h-5.625v2.572h5.625ZM11.875 4.857v-2.57H6.25v2.57h5.625Zm0 4.5V6.145H10v3.214h1.875Zm0 4.5v-3.214H10v3.214h1.875Zm0 3.858v-2.572H6.25v2.572h5.625ZM5 11.098l1.183 2.28h1.783L5.983 10.06l1.95-3.258H6.216L5.133 8.86l-.042.069-.033.077-.533-1.098-.55-1.105H2.157l1.892 3.274-2.067 3.3h1.8L5 11.097ZM19.166 1h.01a.77.77 0 0 1 .573.256.813.813 0 0 1 .251.59v16.296a.868.868 0 0 1-.832.857H5.834A.868.868 0 0 1 5 18.144v-3.001H.824a.77.77 0 0 1-.573-.257.813.813 0 0 1-.251-.59V5.705c0-.233.096-.443.25-.59a.754.754 0 0 1 .566-.258H5v-3.01c0-.232.096-.442.25-.59A.77.77 0 0 1 5.823 1h13.343Z"/></svg>