<svg viewBox="0 0 20 20" xmlns="http://www.w3.org/2000/svg"><path fill-rule="evenodd" clip-rule="evenodd" d="M8.71 1.538h7.483a.259.259 0 0 1 .259.257v16.41a.255.255 0 0 1-.259.257H3.806a.259.259 0 0 1-.258-.257V6.667h3.355c.48 0 .939-.19 1.278-.526a1.79 1.79 0 0 0 .529-1.27V1.539Zm-1.549.576L4.127 5.127h2.776a.259.259 0 0 0 .258-.256V2.114ZM6.57.526C6.95.149 7.522 0 7.935 0h8.258c.48 0 .94.19 1.278.526.339.336.529.793.529 1.269v16.41c0 .476-.19.933-.53 1.27a1.813 1.813 0 0 1-1.276.525H3.806c-.479 0-.938-.19-1.277-.526A1.789 1.789 0 0 1 2 18.205V5.897c0-.41.15-.98.53-1.357M6.57.526 2.53 4.54Zm3.688 3.32c0-.425.347-.77.774-.77h3.097c.428 0 .774.345.774.77 0 .425-.346.77-.774.77h-3.097a.772.772 0 0 1-.774-.77Zm0 3.077c0-.425.347-.77.774-.77h3.097c.428 0 .774.345.774.77 0 .425-.346.77-.774.77h-3.097a.772.772 0 0 1-.774-.77ZM5.097 10c0-.425.346-.77.774-.77h8.258c.428 0 .774.345.774.77v6.154c0 .425-.346.77-.774.77H5.871a.772.772 0 0 1-.774-.77V10Zm1.548 3.846v1.539h2.58v-1.539h-2.58Zm2.58-1.538h-2.58v-1.539h2.58v1.539Zm1.55 1.538v1.539h2.58v-1.539h-2.58Zm2.58-1.538h-2.58v-1.539h2.58v1.539Z" fill="#161C26"/></svg>