<svg xmlns="http://www.w3.org/2000/svg" viewBox="0 0 20 20"><g clip-path="url(#loading-icon__a)" fill-rule="evenodd" clip-rule="evenodd" fill="#444"><path opacity=".5" d="M10 1.875a8.125 8.125 0 1 0 0 16.25 8.125 8.125 0 0 0 0-16.25ZM0 10a10 10 0 1 1 20 0 10 10 0 0 1-20 0Z"/><path d="M9.063.938A.937.937 0 0 1 10 0a10 10 0 0 1 10 10 .938.938 0 0 1-1.875 0A8.125 8.125 0 0 0 10 1.875a.937.937 0 0 1-.938-.938Z"/></g><defs><clipPath id="loading-icon__a"><path fill="#fff" d="M0 0h20v20H0z"/></clipPath></defs></svg>