<?xml version="1.0" encoding="utf-8"?>
<!-- Generator: Adobe Illustrator 22.1.0, SVG Export Plug-In . SVG Version: 6.00 Build 0)  -->
<svg version="1.1" id="Capa_2" xmlns="http://www.w3.org/2000/svg" xmlns:xlink="http://www.w3.org/1999/xlink" x="0px" y="0px"
	 viewBox="0 0 32 32" style="enable-background:new 0 0 32 32;" xml:space="preserve">
<g>
	<g id="keyboard-control">
		<path d="M20,4c0-2.2-1.8-4-4-4s-4,1.8-4,4s1.8,4,4,4S20,6.2,20,4z M20,28c0-2.2-1.8-4-4-4s-4,1.8-4,4s1.8,4,4,4S20,30.2,20,28z
			 M20,16c0-2.2-1.8-4-4-4s-4,1.8-4,4s1.8,4,4,4S20,18.2,20,16z"/>
	</g>
</g>
</svg>
