<svg viewBox="0 0 20 20" fill="none" xmlns="http://www.w3.org/2000/svg"><g clip-path="url(#orders__a)"><path d="M8.889 4.444h6.667v2.223H8.889V4.444Zm0 4.445h6.667v2.222H8.889V8.89Zm0 4.444h6.667v2.223H8.889v-2.223ZM4.444 4.444h2.223v2.223H4.444V4.444Zm0 4.445h2.223v2.222H4.444V8.89Zm0 4.444h2.223v2.223H4.444v-2.223ZM19 0H1C.444 0 0 .444 0 1v18c0 .444.444 1 1 1h18c.444 0 1-.556 1-1V1c0-.556-.556-1-1-1Zm-1.222 17.778H2.222V2.222h15.556v15.556Z" fill="#161C26"/></g><defs><clipPath id="orders__a"><path fill="#fff" d="M0 0h20v20H0z"/></clipPath></defs></svg>