<svg viewBox="0 0 20 20" xmlns="http://www.w3.org/2000/svg"><path d="M2.452 18.125H4.29V20H2.452C1.099 20 0 18.879 0 17.5v-15C0 1.121 1.1 0 2.452 0h6.34c.65 0 1.275.262 1.735.73l3.466 3.536c.46.468.717 1.105.717 1.77v5.839h-1.84V6.25H9.806A1.237 1.237 0 0 1 8.581 5V1.875H2.45a.62.62 0 0 0-.612.625v15a.62.62 0 0 0 .613.625Zm4.29-4.375h1.226c1.183 0 2.145.98 2.145 2.188 0 1.207-.962 2.187-2.145 2.187h-.613v1.25a.62.62 0 0 1-.613.625.62.62 0 0 1-.613-.625v-5a.62.62 0 0 1 .613-.625Zm1.226 3.125c.51 0 .92-.418.92-.938a.926.926 0 0 0-.92-.937h-.613v1.875h.613Zm3.677-3.125h1.226c1.015 0 1.839.84 1.839 1.875v2.5c0 1.035-.824 1.875-1.839 1.875h-1.226a.62.62 0 0 1-.613-.625v-5a.62.62 0 0 1 .613-.625Zm1.226 5a.62.62 0 0 0 .613-.625v-2.5A.62.62 0 0 0 12.87 15h-.613v3.75h.613Zm3.064-4.375a.62.62 0 0 1 .613-.625h1.84a.62.62 0 0 1 .612.625.62.62 0 0 1-.613.625h-1.226v1.25h1.226a.62.62 0 0 1 .613.625.62.62 0 0 1-.613.625h-1.226v1.875a.62.62 0 0 1-.613.625.62.62 0 0 1-.612-.625v-5Z" fill="#161C26"/></svg>