<svg viewBox="0 0 20 20" xmlns="http://www.w3.org/2000/svg"><g clip-path="url(#picture__a)"><path d="M2.222 20a2.14 2.14 0 0 1-1.57-.653A2.14 2.14 0 0 1 0 17.777V2.223c0-.61.218-1.134.653-1.57A2.14 2.14 0 0 1 2.223 0h15.555a2.14 2.14 0 0 1 1.57.653c.434.435.652.958.652 1.57v15.555a2.14 2.14 0 0 1-.653 1.57 2.14 2.14 0 0 1-1.57.652H2.223Zm0-2.222h15.556V2.222H2.222v15.556Zm1.111-2.222h13.334L12.5 10l-3.333 4.444-2.5-3.333-3.334 4.445Z"/></g><defs><clipPath id="picture__a"><path fill="#fff" d="M0 0h20v20H0z"/></clipPath></defs></svg>