<svg viewBox="0 0 20 20" fill="none" xmlns="http://www.w3.org/2000/svg"><g clip-path="url(#price-list__a)"><path d="m19.424 12.25-7.159 7.15a2 2 0 0 1-.676.45c-.25.1-.5.15-.75.15s-.501-.05-.751-.15a2 2 0 0 1-.676-.45L.576 10.575A1.973 1.973 0 0 1 0 9.175V2C0 1.45.196.98.588.587A1.93 1.93 0 0 1 2.002 0h7.184a2.079 2.079 0 0 1 1.427.6l8.811 8.825c.2.2.346.425.438.675a2.062 2.062 0 0 1 0 1.488 1.874 1.874 0 0 1-.438.662ZM10.84 18l7.158-7.15L9.161 2H2.002v7.15L10.84 18ZM4.505 6a1.45 1.45 0 0 0 1.063-.438c.292-.291.439-.645.439-1.062 0-.417-.147-.77-.439-1.063A1.45 1.45 0 0 0 4.506 3a1.45 1.45 0 0 0-1.064.438A1.446 1.446 0 0 0 3.004 4.5c0 .417.146.77.438 1.063A1.45 1.45 0 0 0 4.506 6Z" fill="#444"/></g><defs><clipPath id="price-list__a"><path fill="#fff" d="M0 0h20v20H0z"/></clipPath></defs></svg>
