<svg viewBox="0 0 20 20" xmlns="http://www.w3.org/2000/svg"><g clip-path="url(#reason__a)"><path d="M4 12h3.05l5-5c.15-.15.262-.32.337-.513.075-.191.113-.379.113-.562 0-.183-.042-.362-.125-.537a2.073 2.073 0 0 0-.325-.488l-.9-.95a1.504 1.504 0 0 0-1.638-.338A1.483 1.483 0 0 0 9 3.95l-5 5V12Zm1.5-1.5v-.95l2.525-2.525.5.45.45.5L6.45 10.5H5.5Zm3.025-3.025.45.5-.95-.95.5.45ZM9.175 12H16v-2h-4.825l-2 2ZM0 20V2C0 1.45.196.98.588.587A1.926 1.926 0 0 1 2 0h16c.55 0 1.02.196 1.413.588C19.803.979 20 1.45 20 2v12c0 .55-.196 1.02-.587 1.412A1.926 1.926 0 0 1 18 16H4l-4 4Zm3.15-6H18V2H2v13.125L3.15 14Z" fill="#161C26"/></g><defs><clipPath id="reason__a"><path fill="#fff" d="M0 0h20v20H0z"/></clipPath></defs></svg>