<svg viewBox="0 0 20 20" fill="none" xmlns="http://www.w3.org/2000/svg"><path d="M1.9 5.714h13.3V3.81H1.9v1.904Zm0 13.334c-.522 0-.97-.187-1.342-.56A1.836 1.836 0 0 1 0 17.143V3.81c0-.524.186-.973.558-1.346.372-.373.82-.56 1.342-.56h.95V0h1.9v1.905h7.6V0h1.9v1.905h.95c.523 0 .97.186 1.342.56.372.372.558.82.558 1.345v5.404a6.56 6.56 0 0 0-1.9-.571V7.619H1.9v9.524h5.985c.11.35.241.682.392 1 .15.317.328.619.534.905H1.9Zm8.99-.44c-.927-.93-1.39-2.052-1.39-3.37 0-1.317.463-2.44 1.39-3.369.926-.928 2.046-1.393 3.36-1.393s2.434.464 3.36 1.393c.927.929 1.39 2.052 1.39 3.37 0 1.317-.463 2.44-1.39 3.368-.926.929-2.046 1.393-3.36 1.393s-2.434-.464-3.36-1.393Zm4.95-1.108.665-.667-1.781-1.785V12.38h-.95v3.048l2.066 2.071Z" fill="#161C26"/></svg>