<svg viewBox="0 0 20 20" xmlns="http://www.w3.org/2000/svg"><path d="M16.193 0c.48 0 .939.19 1.278.526.338.337.529.793.529 1.269v16.41c0 .476-.19.933-.53 1.27a1.813 1.813 0 0 1-1.277.525H3.807c-.48 0-.939-.189-1.278-.525A1.79 1.79 0 0 1 2 18.205V5.897c0-.41.15-.98.53-1.357L6.72.396C7.09.114 7.573 0 7.936 0h8.257ZM8.71 1.54v3.332c0 .476-.19.933-.53 1.27a1.813 1.813 0 0 1-1.277.525H3.55v11.538a.256.256 0 0 0 .258.257h12.386a.256.256 0 0 0 .258-.257V1.795a.256.256 0 0 0-.258-.256H8.71ZM6 9a1 1 0 0 1 1 1v6a1 1 0 0 1-2 0v-6a1 1 0 0 1 1-1Zm4 2a1 1 0 0 1 1 1v4a1 1 0 0 1-2 0v-4a1 1 0 0 1 1-1Zm4 1.6a1 1 0 0 1 1 1V16a1 1 0 0 1-2 0v-2.4a1 1 0 0 1 1-1Zm.129-6.446c.427 0 .774.344.774.769 0 .425-.347.77-.774.77h-3.097a.772.772 0 0 1-.774-.77c0-.425.347-.769.774-.769h3.097ZM4.127 5.128h2.776a.256.256 0 0 0 .258-.256V2.113L4.127 5.128Zm10.002-2.05c.428 0 .774.344.774.769a.772.772 0 0 1-.774.768h-3.097a.772.772 0 0 1-.774-.768c0-.425.347-.77.774-.77h3.097Z" fill="#161C26"/></svg>