<svg viewBox="0 0 20 20" xmlns="http://www.w3.org/2000/svg"><g clip-path="url(#return-delivery-note__a)"><path fill-rule="evenodd" clip-rule="evenodd" d="M15 6H3V4h12v2Zm-3.537 12.538C12.438 19.512 13.617 20 15 20s2.563-.488 3.538-1.462C19.512 17.562 20 16.383 20 15s-.488-2.563-1.462-3.537C17.562 10.488 16.383 10 15 10s-2.563.488-3.537 1.463C10.488 12.438 10 13.617 10 15s.488 2.563 1.463 3.538ZM0 2v17l1.5-1.5L3 19l1.5-1.5L6 19l1.5-1.5L9 19l.15-.15a6.254 6.254 0 0 1-.688-1.325 7.666 7.666 0 0 1-.387-1.475H2V2h14v6.075a7.013 7.013 0 0 1 2 .6V2c0-.55-.196-1.02-.587-1.413A1.926 1.926 0 0 0 16 0H2C1.45 0 .98.196.587.588A1.926 1.926 0 0 0 0 2Zm8.075 12H3v-2h5.675a6.922 6.922 0 0 0-.6 2Zm2.025-4H3V8h12c-.95 0-1.846.18-2.688.537A7.157 7.157 0 0 0 10.1 10Zm2.892 7.238A2.909 2.909 0 0 0 15 18a2.9 2.9 0 0 0 1.17-.238c.365-.158.681-.372.95-.641.27-.27.484-.586.642-.95.159-.364.238-.754.238-1.171a2.9 2.9 0 0 0-.238-1.17 3.047 3.047 0 0 0-.641-.95 3.047 3.047 0 0 0-.95-.643A2.903 2.903 0 0 0 15 12a2.976 2.976 0 0 0-2.333 1.117v-.784H12v2h2v-.666h-.917c.228-.311.509-.556.842-.734A2.25 2.25 0 0 1 15 12.667c.65 0 1.201.226 1.654.679.453.453.68 1.004.68 1.654 0 .65-.227 1.201-.68 1.654a2.252 2.252 0 0 1-1.654.68 2.263 2.263 0 0 1-1.53-.567 2.229 2.229 0 0 1-.77-1.434h-.683a2.9 2.9 0 0 0 .975 1.905Z" fill="#161C26"/></g><defs><clipPath id="return-delivery-note__a"><path fill="#fff" d="M0 0h20v20H0z"/></clipPath></defs></svg>