<svg width="20" height="20" fill="none" xmlns="http://www.w3.org/2000/svg"><path d="M18.333 2.5H1.667C.75 2.5 0 3.25 0 4.167v11.666C0 16.75.75 17.5 1.667 17.5h16.666c.917 0 1.659-.75 1.659-1.667L20 4.167c0-.917-.75-1.667-1.667-1.667Zm0 13.333H1.667V4.167h16.666v11.666ZM7.5 10C8.875 10 10 8.875 10 7.5S8.875 5 7.5 5A2.507 2.507 0 0 0 5 7.5C5 8.875 6.125 10 7.5 10Zm0-3.333c.458 0 .833.375.833.833a.836.836 0 0 1-.833.833.836.836 0 0 1-.833-.833c0-.458.375-.833.833-.833Zm5 7.158c0-2.083-3.308-2.983-5-2.983-1.692 0-5 .9-5 2.983V15h10v-1.175Zm-7.933-.492c.616-.416 1.85-.833 2.933-.833 1.083 0 2.308.408 2.933.833H4.567Z" fill="#444"/><path d="M17.5 7.5h-4.583v1.25H17.5V7.5Zm0 2.5h-4.583v1.25H17.5V10Z" fill="#444"/></svg>