<svg viewBox="0 0 20 20" xmlns="http://www.w3.org/2000/svg"><g clip-path="url(#scrap__a)"><path d="M20 10c0 5.523-4.477 10-10 10S0 15.523 0 10 4.477 0 10 0s10 4.477 10 10ZM9.98 18.689v-2.177c.255-.277.701-.124 1.086-.188 9.78-1.624 9.43-15.65-.601-16.01-9.24-.333-13.774 11.154-6.698 17.1.12.101.174.258.372.21-5.093-5.222-1.467-14.148 5.84-14.123V1.165c2.413.741 4.393 2.689 5.287 5.027-.952 2.276-2.93 4.188-5.287 4.956V8.812c-2.315.81-4.269 2.654-5.165 4.94.896 2.301 2.832 4.129 5.165 4.939v-.002Z" fill="#161C26"/></g><defs><clipPath id="scrap__a"><path fill="#fff" d="M0 0h20v20H0z"/></clipPath></defs></svg>