<svg width="20" height="20" fill="none" xmlns="http://www.w3.org/2000/svg"><g clip-path="url(#settings__a)"><path d="M17.64 10.98c.042-.32.073-.64.073-.98 0-.34-.031-.66-.072-.98l2.169-1.65a.495.495 0 0 0 .123-.64l-2.056-3.46a.517.517 0 0 0-.452-.25.492.492 0 0 0-.175.03l-2.56 1c-.534-.4-1.11-.73-1.737-.98l-.39-2.65a.497.497 0 0 0-.505-.42H7.946a.497.497 0 0 0-.504.42l-.39 2.65a7.97 7.97 0 0 0-1.738.98l-2.56-1a.597.597 0 0 0-.185-.03c-.174 0-.35.09-.442.25L.071 6.73a.484.484 0 0 0 .124.64l2.169 1.65a7.74 7.74 0 0 0-.072.98c0 .33.03.66.072.98l-2.17 1.65a.495.495 0 0 0-.123.64l2.056 3.46c.093.16.268.25.453.25.061 0 .123-.01.175-.03l2.56-1c.534.4 1.11.73 1.737.98l.39 2.65c.031.24.247.42.504.42h4.112c.257 0 .473-.18.504-.42l.39-2.65a7.955 7.955 0 0 0 1.738-.98l2.56 1c.062.02.123.03.185.03a.51.51 0 0 0 .442-.25l2.056-3.46a.495.495 0 0 0-.123-.64l-2.17-1.65Zm-2.035-1.71c.041.31.052.52.052.73 0 .21-.021.43-.052.73l-.144 1.13.915.7 1.11.84-.72 1.21-1.305-.51-1.069-.42-.925.68c-.442.32-.864.56-1.285.73l-1.09.43-.165 1.13-.205 1.35h-1.44l-.195-1.35-.164-1.13-1.09-.43a5.876 5.876 0 0 1-1.264-.71l-.936-.7-1.09.43-1.305.51-.72-1.21 1.11-.84.915-.7-.144-1.13a8.1 8.1 0 0 1-.051-.74c0-.2.02-.43.051-.73l.144-1.13-.915-.7-1.11-.84.72-1.21 1.305.51 1.07.42.925-.68a6.05 6.05 0 0 1 1.285-.73l1.09-.43.164-1.13L9.283 2h1.429l.195 1.35.164 1.13 1.09.43c.442.18.854.41 1.265.71l.935.7 1.09-.43 1.306-.51.72 1.21-1.1.85-.916.7.144 1.13ZM10.002 6C7.73 6 5.89 7.79 5.89 10s1.84 4 4.112 4c2.272 0 4.112-1.79 4.112-4s-1.84-4-4.112-4Zm0 6c-1.13 0-2.056-.9-2.056-2s.925-2 2.056-2 2.056.9 2.056 2-.925 2-2.056 2Z" fill="#444"/></g><defs><clipPath id="settings__a"><path fill="#fff" d="M0 0h20v20H0z"/></clipPath></defs></svg>