<svg xmlns="http://www.w3.org/2000/svg" viewBox="0 0 20 20"><g clip-path="url(#show)"><path d="M10 4.5a8.956 8.956 0 0 1 8.085 5.042A8.956 8.956 0 0 1 10 14.583a8.956 8.956 0 0 1-8.085-5.041A8.956 8.956 0 0 1 10 4.5Zm0-1.833c-4.583 0-8.498 2.85-10.083 6.875 1.585 4.024 5.5 6.875 10.083 6.875s8.497-2.851 10.083-6.875C18.498 5.518 14.583 2.667 10 2.667Zm0 4.583a2.293 2.293 0 1 1-.002 4.585A2.293 2.293 0 0 1 10 7.25Zm0-1.833a4.131 4.131 0 0 0-4.125 4.125A4.131 4.131 0 0 0 10 13.667a4.131 4.131 0 0 0 4.125-4.125A4.131 4.131 0 0 0 10 5.417Z" fill="#444"/></g><defs><clipPath id="show"><path fill="#fff" d="M0 0h20v20H0z"/></clipPath></defs></svg>