<svg xmlns="http://www.w3.org/2000/svg" viewBox="0 0 20 20"><g clip-path="url(#show-off)"><path d="M10 4.5a8.956 8.956 0 0 1 8.085 5.042 8.843 8.843 0 0 1-2.21 2.86l1.293 1.292a10.818 10.818 0 0 0 2.915-4.152C18.498 5.518 14.583 2.667 10 2.667c-1.164 0-2.282.183-3.337.522l1.513 1.513c.596-.12 1.2-.202 1.824-.202Zm-.98 1.045 1.897 1.897c.522.23.944.651 1.173 1.174l1.898 1.897a4.29 4.29 0 0 0 .128-.98c.009-2.274-1.843-4.116-4.116-4.116-.34 0-.66.046-.98.128ZM.842 2.547l2.456 2.457A10.76 10.76 0 0 0-.083 9.542c1.585 4.024 5.5 6.875 10.083 6.875 1.393 0 2.732-.266 3.96-.752l3.135 3.135 1.293-1.293L2.134 1.247l-1.291 1.3Zm6.875 6.875 2.392 2.393a.458.458 0 0 1-.11.018 2.292 2.292 0 0 1-2.292-2.291c0-.046.01-.074.01-.12ZM4.6 6.306 6.205 7.91a4.217 4.217 0 0 0-.33 1.632 4.131 4.131 0 0 0 5.748 3.795l.898.898c-.807.22-1.65.348-2.521.348a8.956 8.956 0 0 1-8.085-5.041 9.077 9.077 0 0 1 2.686-3.236Z" fill="#444"/></g><defs><clipPath id="show-off"><path fill="#fff" d="M0 0h20v20H0z"/></clipPath></defs></svg>