<svg xmlns="http://www.w3.org/2000/svg" viewBox="0 0 20 20"><path d="M10.005 5.579c2.51 0 4.547 2.004 4.547 4.474a4.28 4.28 0 0 1-.327 1.637l2.655 2.613a10.58 10.58 0 0 0 3.12-4.25c-1.573-3.928-5.457-6.71-10.005-6.71-1.273 0-2.492.223-3.62.625L8.34 5.901a4.477 4.477 0 0 1 1.665-.322ZM.91 3.136l2.073 2.04.419.412A10.58 10.58 0 0 0 0 10.053c1.573 3.927 5.457 6.71 10.005 6.71 1.41 0 2.755-.268 3.983-.751l.382.375L17.035 19l1.155-1.136L2.065 2 .91 3.136Zm5.03 4.948 1.409 1.387a2.486 2.486 0 0 0-.073.582c0 1.485 1.219 2.684 2.729 2.684.2 0 .4-.027.59-.072l1.41 1.387a4.568 4.568 0 0 1-2 .474c-2.51 0-4.548-2.004-4.548-4.473 0-.707.182-1.37.482-1.969Zm3.919-.698 2.865 2.819.018-.143c0-1.486-1.219-2.685-2.728-2.685l-.155.01Z" fill="#444"/></svg>