<svg viewBox="0 0 20 20" xmlns="http://www.w3.org/2000/svg"><g clip-path="url(#tax-rule__a)"><path d="M4.375 8.75c-1.208 0-2.24-.427-3.094-1.281C.427 6.615 0 5.583 0 4.375s.427-2.24 1.281-3.094C2.135.427 3.167 0 4.375 0s2.24.427 3.094 1.281c.854.854 1.281 1.886 1.281 3.094s-.427 2.24-1.281 3.094c-.854.854-1.886 1.281-3.094 1.281Zm0-2.5c.52 0 .964-.182 1.328-.547.365-.364.547-.807.547-1.328 0-.52-.182-.964-.547-1.328A1.808 1.808 0 0 0 4.375 2.5c-.52 0-.964.182-1.328.547A1.808 1.808 0 0 0 2.5 4.375c0 .52.182.964.547 1.328.364.365.807.547 1.328.547ZM15.625 20c-1.208 0-2.24-.427-3.094-1.281-.854-.854-1.281-1.886-1.281-3.094s.427-2.24 1.281-3.094c.854-.854 1.886-1.281 3.094-1.281s2.24.427 3.094 1.281c.854.854 1.281 1.886 1.281 3.094s-.427 2.24-1.281 3.094c-.854.854-1.886 1.281-3.094 1.281Zm0-2.5c.52 0 .963-.182 1.328-.547.365-.364.547-.807.547-1.328 0-.52-.182-.963-.547-1.328a1.808 1.808 0 0 0-1.328-.547c-.52 0-.963.182-1.328.547a1.808 1.808 0 0 0-.547 1.328c0 .52.182.963.547 1.328.364.365.807.547 1.328.547ZM1.75 20 0 18.25 18.25 0 20 1.75 1.75 20Z" fill="#161C26"/></g><defs><clipPath id="tax-rule__a"><path fill="#fff" d="M0 0h20v20H0z"/></clipPath></defs></svg>