<svg viewBox="0 0 20 20" xmlns="http://www.w3.org/2000/svg"><path d="M17 19c-.65 0-1.233-.188-1.75-.563A2.91 2.91 0 0 1 14.175 17H9c-1.1 0-2.042-.392-2.825-1.175C5.392 15.042 5 14.1 5 13s.392-2.042 1.175-2.825C6.958 9.392 7.9 9 9 9h2c.55 0 1.02-.196 1.412-.588C12.804 8.021 13 7.55 13 7c0-.55-.196-1.02-.588-1.412A1.926 1.926 0 0 0 11 5H5.825a3.09 3.09 0 0 1-1.088 1.438A2.852 2.852 0 0 1 3 7a2.893 2.893 0 0 1-2.125-.875A2.893 2.893 0 0 1 0 4c0-.833.292-1.542.875-2.125A2.893 2.893 0 0 1 3 1c.65 0 1.23.188 1.737.563.509.375.871.854 1.088 1.437H11c1.1 0 2.042.392 2.825 1.175C14.608 4.958 15 5.9 15 7s-.392 2.042-1.175 2.825C13.042 10.608 12.1 11 11 11H9c-.55 0-1.02.196-1.412.588A1.926 1.926 0 0 0 7 13c0 .55.196 1.02.588 1.412.391.392.862.588 1.412.588h5.175a3.09 3.09 0 0 1 1.087-1.438A2.851 2.851 0 0 1 17 13c.833 0 1.542.292 2.125.875S20 15.167 20 16s-.292 1.542-.875 2.125A2.893 2.893 0 0 1 17 19ZM3 5a.97.97 0 0 0 .712-.287A.968.968 0 0 0 4 4a.968.968 0 0 0-.288-.712A.968.968 0 0 0 3 3a.968.968 0 0 0-.712.288A.968.968 0 0 0 2 4c0 .283.096.52.288.713A.968.968 0 0 0 3 5Z" fill="#161C26"/></svg>